inDegrees=no
DataType=double
version=3
OpenSimVersion=4.4-2022-10-11-798caa840
endheader
time	elv_angle	shoulder_elv	shoulder_rot	elbow_flexion	pro_sup	deviation	flexion
1.2010425717	0.3490658700	0.6981316805	0.4363323152	1.4835298061	0.0000000000	0.0000000000	0.0000000000
1.2052128584	0.3490658700	0.6981316805	0.4363323152	1.4835298061	0.0000000000	0.0000000000	0.0000000000
1.2093831451	0.3490658700	0.6981316805	0.4363323152	1.4835298061	0.0000000000	0.0000000000	0.0000000000
1.2135534318	0.3490658700	0.6981316805	0.4363323152	1.4835298061	0.0000000000	0.0000000000	0.0000000000
1.2177237185	0.3490658700	0.6981316805	0.4363323152	1.4835298061	0.0000000000	0.0000000000	0.0000000000
1.2218940052	0.3490658700	0.6981316805	0.4363323152	1.4835298061	0.0000000000	0.0000000000	0.0000000000
1.2260642919	0.3490658700	0.6981316805	0.4363323152	1.4835298061	0.0000000000	0.0000000000	0.0000000000
1.2302345786	0.3490658700	0.6981316805	0.4363323152	1.4835298061	0.0000000000	0.0000000000	0.0000000000
1.2344048653	0.3490658700	0.6981316805	0.4363323152	1.4835298061	0.0000000000	0.0000000000	0.0000000000
1.2385751520	0.3490658700	0.6981316805	0.4363323152	1.4835298061	0.0000000000	0.0000000000	0.0000000000
1.2427454387	0.3490658700	0.6981316805	0.4363323152	1.4835298061	0.0000000000	0.0000000000	0.0000000000
1.2469157255	0.3490658700	0.6981316805	0.4363323152	1.4835298061	0.0000000000	0.0000000000	0.0000000000
1.2510860122	0.3490658700	0.6981316805	0.4363323152	1.4835298061	0.0000000000	0.0000000000	0.0000000000
1.2552562989	0.3490658700	0.6981316805	0.4363323152	1.4835298061	0.0000000000	0.0000000000	0.0000000000
1.2594265856	0.3490658700	0.6981316805	0.4363323152	1.4835298061	0.0000000000	0.0000000000	0.0000000000
1.2635968723	0.3490658700	0.6981316805	0.4363323152	1.4835298061	0.0000000000	0.0000000000	0.0000000000
1.2677671590	0.3490658700	0.6981316805	0.4363323152	1.4835298061	0.0000000000	0.0000000000	0.0000000000
1.2719374457	0.3490658700	0.6981316805	0.4363323152	1.4835298061	0.0000000000	0.0000000000	0.0000000000
1.2761077324	0.3490658700	0.6981316805	0.4363323152	1.4835298061	0.0000000000	0.0000000000	0.0000000000
1.2802780191	0.3490658700	0.6981316805	0.4363323152	1.4835298061	0.0000000000	0.0000000000	0.0000000000
1.2844483058	0.3490658700	0.6981316805	0.4363323152	1.4835298061	0.0000000000	0.0000000000	0.0000000000
1.2886185925	0.3490658700	0.6981316805	0.4363323152	1.4835298061	0.0000000000	0.0000000000	0.0000000000
1.2927888792	0.3490658700	0.6981316805	0.4363323152	1.4835298061	0.0000000000	0.0000000000	0.0000000000
1.2969591659	0.3490658700	0.6981316805	0.4363323152	1.4835298061	0.0000000000	0.0000000000	0.0000000000
1.3011294526	0.3490658700	0.6981316805	0.4363323152	1.4835298061	0.0000000000	0.0000000000	0.0000000000
1.3052997394	0.3490658700	0.6981316805	0.4363323152	1.4835298061	0.0000000000	0.0000000000	0.0000000000
1.3094700261	0.3490658700	0.6981316805	0.4363323152	1.4835298061	0.0000000000	0.0000000000	0.0000000000
1.3136403128	0.3490658700	0.6981316805	0.4363323152	1.4835298061	0.0000000000	0.0000000000	0.0000000000
1.3178105995	0.3490658700	0.6981316805	0.4363323152	1.4835298061	0.0000000000	0.0000000000	0.0000000000
1.3219808862	0.3490658700	0.6981316805	0.4363323152	1.4835298061	0.0000000000	0.0000000000	0.0000000000
1.3261511729	0.3490658700	0.6981316805	0.4363323152	1.4835298061	0.0000000000	0.0000000000	0.0000000000
1.3303214596	0.3490658700	0.6981316805	0.4363323152	1.4835298061	0.0000000000	0.0000000000	0.0000000000
1.3344917463	0.3490658700	0.6981316805	0.4363323152	1.4835298061	0.0000000000	0.0000000000	0.0000000000
1.3386620330	0.3490658700	0.6981316805	0.4363323152	1.4835298061	0.0000000000	0.0000000000	0.0000000000
1.3428323197	0.3490658700	0.6981316805	0.4363323152	1.4835298061	0.0000000000	0.0000000000	0.0000000000
1.3470026064	0.3490658700	0.6981316805	0.4363323152	1.4835298061	0.0000000000	0.0000000000	0.0000000000
1.3511728931	0.3490658700	0.6981316805	0.4363323152	1.4835298061	0.0000000000	0.0000000000	0.0000000000
1.3553431798	0.3490658700	0.6981316805	0.4363323152	1.4835298061	0.0000000000	0.0000000000	0.0000000000
1.3595134666	0.3490658700	0.6981316805	0.4363323152	1.4835298061	0.0000000000	0.0000000000	0.0000000000
1.3636837533	0.3490658700	0.6981316805	0.4363323152	1.4835298061	0.0000000000	0.0000000000	0.0000000000
1.3678540400	0.3490658700	0.6981316805	0.4363323152	1.4835298061	0.0000000000	0.0000000000	0.0000000000
1.3720243267	0.3490658700	0.6981316805	0.4363323152	1.4835298061	0.0000000000	0.0000000000	0.0000000000
1.3761946134	0.3490658700	0.6981316805	0.4363323152	1.4835298061	0.0000000000	0.0000000000	0.0000000000
1.3803649001	0.3490658700	0.6981316805	0.4363323152	1.4835298061	0.0000000000	0.0000000000	0.0000000000
1.3845351868	0.3490658700	0.6981316805	0.4363323152	1.4835298061	0.0000000000	0.0000000000	0.0000000000
1.3887054735	0.3490658700	0.6981316805	0.4363323152	1.4835298061	0.0000000000	0.0000000000	0.0000000000
1.3928757602	0.3490658700	0.6981316805	0.4363323152	1.4835298061	0.0000000000	0.0000000000	0.0000000000
1.3970460469	0.3490658700	0.6981316805	0.4363323152	1.4835298061	0.0000000000	0.0000000000	0.0000000000
1.4012163336	0.3490658700	0.6981316805	0.4363323152	1.4835298061	0.0000000000	0.0000000000	0.0000000000
1.4053866203	0.3490658700	0.6981316805	0.4363323152	1.4835298061	0.0000000000	0.0000000000	0.0000000000
1.4095569070	0.3490658700	0.6981316805	0.4363323152	1.4835298061	0.0000000000	0.0000000000	0.0000000000
1.4137271937	0.3490658700	0.6981316805	0.4363323152	1.4835298061	0.0000000000	0.0000000000	0.0000000000
1.4178974805	0.3490658700	0.6981316805	0.4363323152	1.4835298061	0.0000000000	0.0000000000	0.0000000000
1.4220677672	0.3490658700	0.6981316805	0.4363323152	1.4835298061	0.0000000000	0.0000000000	0.0000000000
1.4262380539	0.3490658700	0.6981316805	0.4363323152	1.4835298061	0.0000000000	0.0000000000	0.0000000000
1.4304083406	0.3490658700	0.6981316805	0.4363323152	1.4835298061	0.0000000000	0.0000000000	0.0000000000
1.4345786273	0.3490658700	0.6981316805	0.4363323152	1.4835298061	0.0000000000	0.0000000000	0.0000000000
1.4387489140	0.3490658700	0.6981316805	0.4363323152	1.4835298061	0.0000000000	0.0000000000	0.0000000000
1.4429192007	0.3490658700	0.6981316805	0.4363323152	1.4835298061	0.0000000000	0.0000000000	0.0000000000
1.4470894874	0.3490658700	0.6981316805	0.4363323152	1.4835298061	0.0000000000	0.0000000000	0.0000000000
1.4512597741	0.3490658700	0.6981316805	0.4363323152	1.4835298061	0.0000000000	0.0000000000	0.0000000000
1.4554300608	0.3490658700	0.6981316805	0.4363323152	1.4835298061	0.0000000000	0.0000000000	0.0000000000
1.4596003475	0.3490658700	0.6981316805	0.4363323152	1.4835298061	0.0000000000	0.0000000000	0.0000000000
1.4637706342	0.3490658700	0.6981316805	0.4363323152	1.4835298061	0.0000000000	0.0000000000	0.0000000000
1.4679409209	0.3490658700	0.6981316805	0.4363323152	1.4835298061	0.0000000000	0.0000000000	0.0000000000
1.4721112076	0.3490658700	0.6981316805	0.4363323152	1.4835298061	0.0000000000	0.0000000000	0.0000000000
1.4762814944	0.3490658700	0.6981316805	0.4363323152	1.4835298061	0.0000000000	0.0000000000	0.0000000000
1.4804517811	0.3490658700	0.6981316805	0.4363323152	1.4835298061	0.0000000000	0.0000000000	0.0000000000
1.4846220678	0.3490658700	0.6981316805	0.4363323152	1.4835298061	0.0000000000	0.0000000000	0.0000000000
1.4887923545	0.3490658700	0.6981316805	0.4363323152	1.4835298061	0.0000000000	0.0000000000	0.0000000000
1.4929626412	0.3490658700	0.6981316805	0.4363323152	1.4835298061	0.0000000000	0.0000000000	0.0000000000
1.4971329279	0.3490658700	0.6981316805	0.4363323152	1.4835298061	0.0000000000	0.0000000000	0.0000000000
1.5013032146	0.3490658700	0.6981316805	0.4363323152	1.4835298061	0.0000000000	0.0000000000	0.0000000000
1.5054735013	0.3490658700	0.6981316805	0.4363323152	1.4835298061	0.0000000000	0.0000000000	0.0000000000
1.5096437880	0.3490658700	0.6981316805	0.4363323152	1.4835298061	0.0000000000	0.0000000000	0.0000000000
1.5138140747	0.3490658700	0.6981316805	0.4363323152	1.4835298061	0.0000000000	0.0000000000	0.0000000000
1.5179843614	0.3490658700	0.6981316805	0.4363323152	1.4835298061	0.0000000000	0.0000000000	0.0000000000
1.5221546481	0.3490658700	0.6981316805	0.4363323152	1.4835298061	0.0000000000	0.0000000000	0.0000000000
1.5263249348	0.3490658700	0.6981316805	0.4363323152	1.4835298061	0.0000000000	0.0000000000	0.0000000000
1.5304952215	0.3490658700	0.6981316805	0.4363323152	1.4835298061	0.0000000000	0.0000000000	0.0000000000
1.5346655083	0.3490658700	0.6981316805	0.4363323152	1.4835298061	0.0000000000	0.0000000000	0.0000000000
1.5388357950	0.3490658700	0.6981316805	0.4363323152	1.4835298061	0.0000000000	0.0000000000	0.0000000000
1.5430060817	0.3490658700	0.6981316805	0.4363323152	1.4835298061	0.0000000000	0.0000000000	0.0000000000
1.5471763684	0.3490658700	0.6981316805	0.4363323152	1.4835298061	0.0000000000	0.0000000000	0.0000000000
1.5513466551	0.3490658700	0.6981316805	0.4363323152	1.4835298061	0.0000000000	0.0000000000	0.0000000000
1.5555169418	0.3490658700	0.6981316805	0.4363323152	1.4835298061	0.0000000000	0.0000000000	0.0000000000
1.5596872285	0.3490658700	0.6981316805	0.4363323152	1.4835298061	0.0000000000	0.0000000000	0.0000000000
1.5638575152	0.3490658700	0.6981316805	0.4363323152	1.4835298061	0.0000000000	0.0000000000	0.0000000000
1.5680278019	0.3490658700	0.6981316805	0.4363323152	1.4835298061	0.0000000000	0.0000000000	0.0000000000
1.5721980886	0.3490658700	0.6981316805	0.4363323152	1.4835298061	0.0000000000	0.0000000000	0.0000000000
1.5763683753	0.3490658700	0.6981316805	0.4363323152	1.4835298061	0.0000000000	0.0000000000	0.0000000000
1.5805386620	0.3490658700	0.6981316805	0.4363323152	1.4835298061	0.0000000000	0.0000000000	0.0000000000
1.5847089487	0.3490658700	0.6981316805	0.4363323152	1.4835298061	0.0000000000	0.0000000000	0.0000000000
1.5888792354	0.3490658700	0.6981316805	0.4363323152	1.4835298061	0.0000000000	0.0000000000	0.0000000000
1.5930495222	0.3490658700	0.6981316805	0.4363323152	1.4835298061	0.0000000000	0.0000000000	0.0000000000
1.5972198089	0.3490658700	0.6981316805	0.4363323152	1.4835298061	0.0000000000	0.0000000000	0.0000000000
1.6013900956	0.3490658700	0.6981316805	0.4363323152	1.4835298061	0.0000000000	0.0000000000	0.0000000000
1.6055603823	0.3490658700	0.6981316805	0.4363323152	1.4835298061	0.0000000000	0.0000000000	0.0000000000
1.6097306690	0.3490658700	0.6981316805	0.4363323152	1.4835298061	0.0000000000	0.0000000000	0.0000000000
1.6139009557	0.3490658700	0.6981316805	0.4363323152	1.4835298061	0.0000000000	0.0000000000	0.0000000000
1.6180712424	0.3490658700	0.6981316805	0.4363323152	1.4835298061	0.0000000000	0.0000000000	0.0000000000
1.6222415291	0.3490658700	0.6981316805	0.4363323152	1.4835298061	0.0000000000	0.0000000000	0.0000000000
1.6264118158	0.3490658700	0.6981316805	0.4363323152	1.4835298061	0.0000000000	0.0000000000	0.0000000000
1.6305821025	0.3490658700	0.6981316805	0.4363323152	1.4835298061	0.0000000000	0.0000000000	0.0000000000
1.6347523892	0.3490658700	0.6981316805	0.4363323152	1.4835298061	0.0000000000	0.0000000000	0.0000000000
1.6389226759	0.3490658700	0.6981316805	0.4363323152	1.4835298061	0.0000000000	0.0000000000	0.0000000000
1.6430929626	0.3490658700	0.6981316805	0.4363323152	1.4835298061	0.0000000000	0.0000000000	0.0000000000
1.6472632493	0.3490658700	0.6981316805	0.4363323152	1.4835298061	0.0000000000	0.0000000000	0.0000000000
1.6514335361	0.3490658700	0.6981316805	0.4363323152	1.4835298061	0.0000000000	0.0000000000	0.0000000000
1.6556038228	0.3490670919	0.6981322169	0.4363317788	1.4835277796	0.0000000000	0.0000000000	0.0000000000
1.6597741095	0.3490752876	0.6981360912	0.4363282621	1.4835138321	0.0000000000	0.0000000000	0.0000000000
1.6639443962	0.3490975797	0.6981463432	0.4363187253	1.4834761620	0.0000000000	0.0000000000	0.0000000000
1.6681146829	0.3491401970	0.6981658936	0.4363005757	1.4834042788	0.0000000000	0.0000000000	0.0000000000
1.6722849696	0.3492092788	0.6981977224	0.4362711310	1.4832874537	0.0000000000	0.0000000000	0.0000000000
1.6764552563	0.3493108451	0.6982443333	0.4362279475	1.4831162691	0.0000000000	0.0000000000	0.0000000000
